<?xml version="1.0" encoding="utf-8"?>
<!-- Generator: Adobe Illustrator 20.0.0, SVG Export Plug-In . SVG Version: 6.00 Build 0)  -->
<svg version="1.1" xmlns="http://www.w3.org/2000/svg" xmlns:xlink="http://www.w3.org/1999/xlink" x="0px" y="0px"
	 viewBox="0 0 400 400" style="enable-background:new 0 0 400 400;" xml:space="preserve">
<style type="text/css">
	.st1{fill:#777;}
</style>
<path class="st1" d="M199.9899292,48c-86.0548248,0-155.8383789,69.7749557-155.8383789,155.8575134
	c0,68.8497925,44.6509933,127.2634888,106.5864334,147.8745117c7.7926941,1.4293518,10.6370239-3.3820801,10.6370239-7.5123291
	c0-3.699707-0.134903-13.5005493-0.210495-26.5064392c-43.351738,9.4181213-52.4990616-20.8913574-52.4990616-20.8913574
	c-7.0866165-18.0039063-17.303627-22.7971497-17.303627-22.7971497c-14.1501694-9.6697693,1.0705872-9.4736328,1.0705872-9.4736328
	c15.6398621,1.1021423,23.8715897,16.0607605,23.8715897,16.0607605
	c13.9023666,23.8161011,36.4756546,16.9390564,45.356102,12.9494629
	c1.4159851-10.0715942,5.4419403-16.9390564,9.8945923-20.8348999c-34.6071472-3.933136-70.9890442-17.3035736-70.9890442-77.025116
	c0-17.0136871,6.0724182-30.9256287,16.0416336-41.8200073c-1.6025391-3.9427185-6.9507065-19.7882233,1.5279083-41.2450027
	c0,0,13.0853195-4.1905212,42.8571091,15.9765701c12.4309082-3.4566879,25.7630615-5.1855164,39.0167694-5.2457962
	c13.2345581,0.0602798,26.5676727,1.7891083,39.0167542,5.2457962
	c29.7536316-20.1670914,42.8150024-15.9765701,42.8150024-15.9765701
	c8.5025635,21.4567795,3.1534119,37.3022842,1.5508728,41.2450027
	c9.9883728,10.8943787,16.0196533,24.8063202,16.0196533,41.8200073c0,59.8707886-36.4383545,73.0450745-71.1574554,76.9036255
	c5.5959778,4.8114319,10.5805817,14.3233337,10.5805817,28.8609619c0,20.8348999-0.1913452,37.6438599-0.1913452,42.7537842
	c0,4.167572,2.8070679,9.0162964,10.7164307,7.4941406c61.8751526-20.649292,106.4888916-79.0247192,106.4888916-147.8563232
	C355.8484497,117.7749557,286.0639343,48,199.9899292,48z"/>
</svg>
