<?xml version="1.0" encoding="utf-8"?>
<!-- Generator: Adobe Illustrator 22.1.0, SVG Export Plug-In . SVG Version: 6.00 Build 0)  -->
<svg version="1.1" id="Layer_1" xmlns="http://www.w3.org/2000/svg" xmlns:xlink="http://www.w3.org/1999/xlink" x="0px" y="0px"
	 viewBox="0 0 400 400" style="enable-background:new 0 0 400 400;" xml:space="preserve">
<style type="text/css">
	.st0{fill:#1C77C8;}
	.st1{fill:#FFFFFF;stroke:#1C77C8;stroke-width:3.6522195;stroke-miterlimit:10;}
	.st2{fill:none;stroke:#1C77C8;stroke-width:2.434813;stroke-miterlimit:10;}
	.st3{fill:#FFFFFF;}
	.st4{fill:none;stroke:#1C77C8;stroke-width:1.2174065;stroke-miterlimit:10;}
	.st5{fill:none;stroke:#1C77C8;stroke-width:2.434813;stroke-miterlimit:10;stroke-dasharray:4.9314828,4.9314828;}
	.st6{fill:none;stroke:#FFFFFF;stroke-width:2.434813;stroke-miterlimit:10;}
	.st7{fill:none;stroke:#FFFFFF;stroke-width:2.434813;stroke-miterlimit:10;stroke-dasharray:5.1219792,5.1219792;}
</style>
<g>
	<circle class="st0" cx="199.9704742" cy="11.0387592" r="8.161788"/>
	<circle class="st0" cx="213.3760986" cy="11.5148458" r="8.161788"/>
	<circle class="st0" cx="226.7141876" cy="12.9407043" r="8.161788"/>
	<circle class="st0" cx="239.9175262" cy="15.3091507" r="8.161788"/>
	<circle class="st0" cx="252.9195862" cy="18.6082535" r="8.161788"/>
	<circle class="st0" cx="265.6548462" cy="22.8213863" r="8.161788"/>
	<circle class="st0" cx="278.0591736" cy="27.9273243" r="8.161788"/>
	<circle class="st0" cx="290.0700073" cy="33.9003372" r="8.161788"/>
	<circle class="st0" cx="301.6268921" cy="40.7103348" r="8.161788"/>
	<circle class="st0" cx="312.6715698" cy="48.322998" r="8.161788"/>
	<circle class="st0" cx="323.148407" cy="56.6999779" r="8.161788"/>
	<circle class="st0" cx="333.0045776" cy="65.799057" r="8.161788"/>
	<circle class="st0" cx="342.1904602" cy="75.5743942" r="8.161788"/>
	<circle class="st0" cx="350.6597595" cy="85.976738" r="8.161788"/>
	<circle class="st0" cx="358.3697815" cy="96.9536667" r="8.161788"/>
	<circle class="st0" cx="365.2817078" cy="108.4498825" r="8.161788"/>
	<circle class="st0" cx="371.3606873" cy="120.4074478" r="8.161788"/>
	<circle class="st0" cx="376.5761108" cy="132.7661285" r="8.161788"/>
	<circle class="st0" cx="380.9017029" cy="145.4636383" r="8.161788"/>
	<circle class="st0" cx="384.3156433" cy="158.4360199" r="8.161788"/>
	<circle class="st0" cx="386.8007507" cy="171.6178894" r="8.161788"/>
	<circle class="st0" cx="388.3444824" cy="184.9428558" r="8.161788"/>
	<circle class="st0" cx="388.9390869" cy="198.34375" r="8.161788"/>
	<circle class="st0" cx="388.5815735" cy="211.753067" r="8.161788"/>
	<circle class="st0" cx="387.2737122" cy="225.103241" r="8.161788"/>
	<circle class="st0" cx="385.0220947" cy="238.3269958" r="8.161788"/>
	<circle class="st0" cx="381.8381042" cy="251.3577118" r="8.161788"/>
	<circle class="st0" cx="377.7377319" cy="264.1297302" r="8.161788"/>
	<circle class="st0" cx="372.7416687" cy="276.5787048" r="8.161788"/>
	<circle class="st0" cx="366.8751221" cy="288.6419067" r="8.161788"/>
	<circle class="st0" cx="360.167572" cy="300.2585754" r="8.161788"/>
	<circle class="st0" cx="352.6528625" cy="311.3701172" r="8.161788"/>
	<circle class="st0" cx="344.368866" cy="321.9206238" r="8.161788"/>
	<circle class="st0" cx="335.3572693" cy="331.8568726" r="8.161788"/>
	<circle class="st0" cx="325.6635437" cy="341.1288147" r="8.161788"/>
	<circle class="st0" cx="315.3365173" cy="349.6897583" r="8.161788"/>
	<circle class="st0" cx="304.4281921" cy="357.4965515" r="8.161788"/>
	<circle class="st0" cx="292.9935303" cy="364.5098572" r="8.161788"/>
	<circle class="st0" cx="281.0901794" cy="370.6943359" r="8.161788"/>
	<circle class="st0" cx="268.7781067" cy="376.0188599" r="8.161788"/>
	<circle class="st0" cx="256.1193542" cy="380.456543" r="8.161788"/>
	<circle class="st0" cx="243.1776581" cy="383.9850464" r="8.161788"/>
	<circle class="st0" cx="230.01828" cy="386.5866394" r="8.161788"/>
	<circle class="st0" cx="216.707489" cy="388.2481384" r="8.161788"/>
	<circle class="st0" cx="203.3123779" cy="388.9612122" r="8.161788"/>
	<circle class="st0" cx="189.9004211" cy="388.7222595" r="8.161788"/>
	<circle class="st0" cx="176.5392151" cy="387.5325012" r="8.161788"/>
	<circle class="st0" cx="163.296051" cy="385.3979187" r="8.161788"/>
	<circle class="st0" cx="150.2376862" cy="382.3292847" r="8.161788"/>
	<circle class="st0" cx="137.4299011" cy="378.3420105" r="8.161788"/>
	<circle class="st0" cx="124.9372406" cy="373.4562378" r="8.161788"/>
	<circle class="st0" cx="112.8226318" cy="367.6965637" r="8.161788"/>
	<circle class="st0" cx="101.1471252" cy="361.0920105" r="8.161788"/>
	<circle class="st0" cx="89.9695511" cy="353.6758423" r="8.161788"/>
	<circle class="st0" cx="79.3462296" cy="345.4854431" r="8.161788"/>
	<circle class="st0" cx="69.3306732" cy="336.5621033" r="8.161788"/>
	<circle class="st0" cx="59.9733658" cy="326.9507141" r="8.161788"/>
	<circle class="st0" cx="51.3214417" cy="316.6997986" r="8.161788"/>
	<circle class="st0" cx="43.418499" cy="305.8609314" r="8.161788"/>
	<circle class="st0" cx="36.3043556" cy="294.488739" r="8.161788"/>
	<circle class="st0" cx="30.0148582" cy="282.6405334" r="8.161788"/>
	<circle class="st0" cx="24.5816975" cy="270.3760071" r="8.161788"/>
	<circle class="st0" cx="20.0322475" cy="257.7569885" r="8.161788"/>
	<circle class="st0" cx="16.389431" cy="244.8470154" r="8.161788"/>
	<circle class="st0" cx="13.6716042" cy="231.7111511" r="8.161788"/>
	<circle class="st0" cx="11.8924589" cy="218.4155731" r="8.161788"/>
	<circle class="st0" cx="11.0609608" cy="205.0272827" r="8.161788"/>
	<circle class="st0" cx="11.1812992" cy="191.613739" r="8.161788"/>
	<circle class="st0" cx="12.2528677" cy="178.2425385" r="8.161788"/>
	<circle class="st0" cx="14.2702675" cy="164.9810181" r="8.161788"/>
	<circle class="st0" cx="17.2233334" cy="151.8960266" r="8.161788"/>
	<circle class="st0" cx="21.097187" cy="139.0534973" r="8.161788"/>
	<circle class="st0" cx="25.8723068" cy="126.5181122" r="8.161788"/>
	<circle class="st0" cx="31.5246353" cy="114.3530502" r="8.161788"/>
	<circle class="st0" cx="38.025692" cy="102.6195984" r="8.161788"/>
	<circle class="st0" cx="45.3427238" cy="91.3768845" r="8.161788"/>
	<circle class="st0" cx="53.438858" cy="80.6815491" r="8.161788"/>
	<circle class="st0" cx="62.2733078" cy="70.5874863" r="8.161788"/>
	<circle class="st0" cx="71.8015518" cy="61.1455536" r="8.161788"/>
	<circle class="st0" cx="81.9755859" cy="52.4033241" r="8.161788"/>
	<circle class="st0" cx="92.7441483" cy="44.40485" r="8.161788"/>
	<circle class="st0" cx="104.0529861" cy="37.1904259" r="8.161788"/>
	<circle class="st0" cx="115.8451004" cy="30.7964077" r="8.161788"/>
	<circle class="st0" cx="128.0610962" cy="25.2550106" r="8.161788"/>
	<circle class="st0" cx="140.6394043" cy="20.5941544" r="8.161788"/>
	<circle class="st0" cx="153.5166626" cy="16.8373241" r="8.161788"/>
	<circle class="st0" cx="166.6279907" cy="14.0034504" r="8.161788"/>
	<circle class="st0" cx="179.9073029" cy="12.1068087" r="8.161788"/>
	<circle class="st0" cx="193.2877197" cy="11.1569576" r="8.161788"/>
	<circle class="st1" cx="199.9704742" cy="200.0147552" r="188.9759979"/>
	<rect x="10.9944715" y="181.3317566" class="st0" width="377.9519958" height="37.0517044"/>
	<g>
		<g>
			<line class="st2" x1="106.6706619" y1="73.8252869" x2="106.6706619" y2="151.5316467"/>
		</g>
		<g>
			<circle class="st0" cx="106.6706619" cy="112.6784744" r="6.9233994"/>
		</g>
		<g>
			<line class="st2" x1="145.6276703" y1="59.6949997" x2="145.6276703" y2="121.575058"/>
		</g>
		<g>
			<circle class="st0" cx="145.6276703" cy="90.6350403" r="6.9233994"/>
		</g>
	</g>
	<g>
		<path class="st3" d="M31.2219791,196.7329559h-3.765625v6.2758789c0,1.546875,0,3.1816406,1.9848633,3.1816406
			c0.612793,0,1.3427734-0.0878906,1.8681641-0.4086914v2.3935547c-0.612793,0.3500977-1.8388672,0.4667969-2.3642578,0.4667969
			c-4.0576172,0-4.1162109-2.480957-4.1162109-4.6992188v-7.2099609h-3.0356445v-2.2768555h3.0356445v-3.8823242h2.6274414
			v3.8823242h3.765625V196.7329559z"/>
		<path class="st3" d="M36.0667038,194.4561005h2.6269531v2.1308594h0.0585938
			c0.6713867-1.4594727,2.4228516-2.4814453,4.1450195-2.4814453c0.4086914,0,0.8173828,0.0585938,1.1674805,0.175293
			l-0.1166992,2.831543c-0.4379883-0.1166992-0.8754883-0.2045898-1.2841797-0.2045898
			c-2.5688477,0-3.9702148,1.4013672-3.9702148,4.4370117v6.9472656h-2.6269531V194.4561005z"/>
		<path class="st3" d="M48.3850632,196.1489716c1.4594727-1.3720703,3.5610352-2.043457,5.487793-2.043457
			c4.0864258,0,5.7792969,2.21875,5.7792969,4.6123047v7.0639648c0,0.9633789,0.0292969,1.7802734,0.1166992,2.5102539h-2.3349609
			c-0.0585938-0.7006836-0.0874023-1.4008789-0.0874023-2.1015625h-0.0585938
			c-1.1674805,1.7802734-2.7436523,2.4516602-4.8457031,2.4516602c-2.5683594,0-4.7871094-1.4594727-4.7871094-4.1450195
			c0-3.5610352,3.4155273-4.7871094,7.6186523-4.7871094h1.9267578v-0.5834961c0-1.4306641-1.0507813-2.9189453-3.2988281-2.9189453
			c-2.0141602,0-2.9770508,0.8461914-3.9404297,1.5761719L48.3850632,196.1489716z M55.7991257,201.6367645
			c-2.480957,0-5.5170898,0.4379883-5.5170898,2.65625c0,1.5761719,1.1679688,2.2475586,2.9775391,2.2475586
			c2.9189453,0,3.940918-2.1601563,3.940918-4.0283203v-0.8754883H55.7991257z"/>
		<path class="st3" d="M64.9348679,194.4561005h2.6269531v2.1308594h0.0585938
			c0.6713867-1.4594727,2.4228516-2.4814453,4.5537109-2.4814453c2.6855469,0,5.0205078,1.6054688,5.0205078,5.2836914v8.902832
			h-2.6269531v-8.1733398c0-2.5976563-1.4887695-3.5610352-3.1523438-3.5610352
			c-2.1894531,0-3.8535156,1.4008789-3.8535156,4.6118164v7.1225586h-2.6269531V194.4561005z"/>
		<path class="st3" d="M89.9797897,197.9297333c-0.612793-0.7592773-1.5180664-1.3720703-2.831543-1.3720703
			c-1.2260742,0-2.3061523,0.5546875-2.3061523,1.546875c0,1.6640625,2.3647461,1.8974609,3.5322266,2.1601563
			c2.2768555,0.5546875,4.0283203,1.4301758,4.0283203,4.0283203c0,3.1235352-2.8608398,4.3491211-5.6044922,4.3491211
			c-2.2768555,0-3.9697266-0.5834961-5.3417969-2.4516602l1.9848633-1.6347656
			c0.8466797,0.8466797,1.8388672,1.6347656,3.3569336,1.6347656c1.3427734,0,2.8022461-0.5546875,2.8022461-1.7514648
			c0-1.5761719-2.1894531-1.8681641-3.3276367-2.1308594c-2.2475586-0.5546875-4.2324219-1.284668-4.2324219-3.940918
			c0-2.8896484,2.65625-4.2617188,5.2539063-4.2617188c1.8388672,0,3.7363281,0.6420898,4.7290039,2.2768555L89.9797897,197.9297333
			z"/>
		<path class="st3" d="M97.042778,194.4561005h2.6269531v1.9848633h0.0585938
			c1.0214844-1.4887695,2.9482422-2.3354492,4.8164063-2.3354492c4.2910156,0,7.034668,3.1816406,7.034668,7.2685547
			c0,4.1450195-2.7729492,7.2680664-7.034668,7.2680664c-1.9848633,0-3.8823242-0.9047852-4.8164063-2.3349609h-0.0585938
			v10.2163086H97.042778V194.4561005z M99.6697311,201.3740692c0,2.8022461,1.7514648,4.8164063,4.5537109,4.8164063
			s4.5537109-2.0141602,4.5537109-4.8164063s-1.7514648-4.8164063-4.5537109-4.8164063
			S99.6697311,198.5718231,99.6697311,201.3740692z"/>
		<path class="st3" d="M116.3953171,196.1489716c1.4594727-1.3720703,3.5610352-2.043457,5.487793-2.043457
			c4.0864258,0,5.7792969,2.21875,5.7792969,4.6123047v7.0639648c0,0.9633789,0.0292969,1.7802734,0.1166992,2.5102539h-2.3349609
			c-0.0585938-0.7006836-0.0874023-1.4008789-0.0874023-2.1015625h-0.0585938
			c-1.1674805,1.7802734-2.7436523,2.4516602-4.8457031,2.4516602c-2.5683594,0-4.7871094-1.4594727-4.7871094-4.1450195
			c0-3.5610352,3.4155273-4.7871094,7.6186523-4.7871094h1.9267578v-0.5834961c0-1.4306641-1.0512695-2.9189453-3.2988281-2.9189453
			c-2.0141602,0-2.9770508,0.8461914-3.9404297,1.5761719L116.3953171,196.1489716z M123.8093796,201.6367645
			c-2.480957,0-5.5170898,0.4379883-5.5170898,2.65625c0,1.5761719,1.1679688,2.2475586,2.9775391,2.2475586
			c2.9189453,0,3.940918-2.1601563,3.940918-4.0283203v-0.8754883H123.8093796z"/>
		<path class="st3" d="M132.9456177,194.4561005h2.6269531v2.1308594h0.0585938
			c0.6713867-1.4594727,2.4228516-2.4814453,4.1450195-2.4814453c0.4086914,0,0.8173828,0.0585938,1.1674805,0.175293
			l-0.1166992,2.831543c-0.4379883-0.1166992-0.8754883-0.2045898-1.2841797-0.2045898
			c-2.5688477,0-3.9702148,1.4013672-3.9702148,4.4370117v6.9472656h-2.6269531V194.4561005z"/>
		<path class="st3" d="M146.664856,202.3374481c0,2.4223633,2.2475586,4.027832,4.6704102,4.027832
			c1.6054688,0,2.7729492-0.8168945,3.7949219-2.0722656l1.9848633,1.5180664
			c-1.4594727,1.8969727-3.4736328,2.8310547-6.1298828,2.8310547c-4.378418,0-7.1225586-3.1523438-7.1225586-7.2680664
			c0-4.1450195,3.0068359-7.2685547,7.1518555-7.2685547c4.8745117,0,6.7426758,3.7363281,6.7426758,7.2978516v0.934082H146.664856z
			 M154.954895,200.2353973c-0.0581055-2.3056641-1.3427734-4.027832-3.9990234-4.027832
			c-2.5976563,0-4.2910156,2.1889648-4.2910156,4.027832H154.954895z"/>
		<path class="st3" d="M162.3684692,194.4561005h2.6269531v2.1308594h0.0585938
			c0.6713867-1.4594727,2.4228516-2.4814453,4.5537109-2.4814453c2.6855469,0,5.0205078,1.6054688,5.0205078,5.2836914v8.902832
			h-2.6269531v-8.1733398c0-2.5976563-1.4887695-3.5610352-3.1523438-3.5610352
			c-2.1894531,0-3.8535156,1.4008789-3.8535156,4.6118164v7.1225586h-2.6269531V194.4561005z"/>
		<path class="st3" d="M187.4719849,196.7329559h-3.765625v6.2758789c0,1.546875,0,3.1816406,1.9848633,3.1816406
			c0.612793,0,1.3427734-0.0878906,1.8681641-0.4086914v2.3935547c-0.612793,0.3500977-1.8388672,0.4667969-2.3642578,0.4667969
			c-4.0576172,0-4.1162109-2.480957-4.1162109-4.6992188v-7.2099609h-3.0356445v-2.2768555h3.0356445v-3.8823242h2.6274414
			v3.8823242h3.765625V196.7329559z"/>
		<path class="st3" d="M199.6726685,197.9297333c-0.612793-0.7592773-1.5180664-1.3720703-2.831543-1.3720703
			c-1.2260742,0-2.3056641,0.5546875-2.3056641,1.546875c0,1.6640625,2.3642578,1.8974609,3.5317383,2.1601563
			c2.2768555,0.5546875,4.0283203,1.4301758,4.0283203,4.0283203c0,3.1235352-2.8608398,4.3491211-5.6044922,4.3491211
			c-2.2768555,0-3.9697266-0.5834961-5.3417969-2.4516602l1.9848633-1.6347656
			c0.8466797,0.8466797,1.8388672,1.6347656,3.3569336,1.6347656c1.3427734,0,2.8022461-0.5546875,2.8022461-1.7514648
			c0-1.5761719-2.1894531-1.8681641-3.3276367-2.1308594c-2.2475586-0.5546875-4.2329102-1.284668-4.2329102-3.940918
			c0-2.8896484,2.6567383-4.2617188,5.2543945-4.2617188c1.8388672,0,3.7363281,0.6420898,4.7290039,2.2768555
			L199.6726685,197.9297333z"/>
		<path class="st3" d="M214.1506958,196.7329559h-3.765625v6.2758789c0,1.546875,0,3.1816406,1.9848633,3.1816406
			c0.612793,0,1.3427734-0.0878906,1.8681641-0.4086914v2.3935547c-0.612793,0.3500977-1.8388672,0.4667969-2.3642578,0.4667969
			c-4.0576172,0-4.1162109-2.480957-4.1162109-4.6992188v-7.2099609h-3.0356445v-2.2768555h3.0356445v-3.8823242h2.6274414
			v3.8823242h3.765625V196.7329559z"/>
		<path class="st3" d="M219.0540161,196.1489716c1.4594727-1.3720703,3.5610352-2.043457,5.487793-2.043457
			c4.0864258,0,5.7792969,2.21875,5.7792969,4.6123047v7.0639648c0,0.9633789,0.0292969,1.7802734,0.1166992,2.5102539h-2.3349609
			c-0.0585938-0.7006836-0.0874023-1.4008789-0.0874023-2.1015625h-0.0585938
			c-1.1674805,1.7802734-2.7436523,2.4516602-4.8457031,2.4516602c-2.5683594,0-4.7871094-1.4594727-4.7871094-4.1450195
			c0-3.5610352,3.4155273-4.7871094,7.6186523-4.7871094h1.9267578v-0.5834961c0-1.4306641-1.0507813-2.9189453-3.2988281-2.9189453
			c-2.0141602,0-2.9770508,0.8461914-3.9404297,1.5761719L219.0540161,196.1489716z M226.4680786,201.6367645
			c-2.480957,0-5.5170898,0.4379883-5.5170898,2.65625c0,1.5761719,1.1679688,2.2475586,2.9775391,2.2475586
			c2.9189453,0,3.940918-2.1601563,3.940918-4.0283203v-0.8754883H226.4680786z"/>
		<path class="st3" d="M243.0183716,196.7329559h-3.765625v6.2758789c0,1.546875,0,3.1816406,1.9848633,3.1816406
			c0.612793,0,1.3427734-0.0878906,1.8681641-0.4086914v2.3935547c-0.6132813,0.3500977-1.8388672,0.4667969-2.3642578,0.4667969
			c-4.0576172,0-4.1162109-2.480957-4.1162109-4.6992188v-7.2099609h-3.0356445v-2.2768555h3.0356445v-3.8823242h2.6274414
			v3.8823242h3.765625V196.7329559z"/>
		<path class="st3" d="M249.3816528,187.5669403c1.0507813,0,1.9262695,0.8759766,1.9262695,1.9267578
			s-0.8754883,1.9262695-1.9262695,1.9262695s-1.9267578-0.8754883-1.9267578-1.9262695
			S248.3308716,187.5669403,249.3816528,187.5669403z M248.0681763,194.4561005h2.6269531v13.8359375h-2.6269531V194.4561005z"/>
		<path class="st3" d="M263.6838989,197.9297333c-0.612793-0.7592773-1.5180664-1.3720703-2.831543-1.3720703
			c-1.2260742,0-2.3061523,0.5546875-2.3061523,1.546875c0,1.6640625,2.3647461,1.8974609,3.5322266,2.1601563
			c2.2768555,0.5546875,4.0283203,1.4301758,4.0283203,4.0283203c0,3.1235352-2.8608398,4.3491211-5.6044922,4.3491211
			c-2.2768555,0-3.9697266-0.5834961-5.3417969-2.4516602l1.9848633-1.6347656
			c0.8466797,0.8466797,1.8388672,1.6347656,3.3569336,1.6347656c1.3427734,0,2.8022461-0.5546875,2.8022461-1.7514648
			c0-1.5761719-2.1894531-1.8681641-3.3276367-2.1308594c-2.2475586-0.5546875-4.2324219-1.284668-4.2324219-3.940918
			c0-2.8896484,2.65625-4.2617188,5.2539063-4.2617188c1.8388672,0,3.7363281,0.6420898,4.7290039,2.2768555
			L263.6838989,197.9297333z"/>
		<path class="st3" d="M278.1619263,196.7329559h-3.765625v6.2758789c0,1.546875,0,3.1816406,1.9848633,3.1816406
			c0.612793,0,1.3427734-0.0878906,1.8681641-0.4086914v2.3935547c-0.6132813,0.3500977-1.8388672,0.4667969-2.3642578,0.4667969
			c-4.0576172,0-4.1162109-2.480957-4.1162109-4.6992188v-7.2099609h-3.0356445v-2.2768555h3.0356445v-3.8823242h2.6274414
			v3.8823242h3.765625V196.7329559z"/>
		<path class="st3" d="M284.5247192,187.5669403c1.0507813,0,1.9262695,0.8759766,1.9262695,1.9267578
			s-0.8754883,1.9262695-1.9262695,1.9262695s-1.9267578-0.8754883-1.9267578-1.9262695
			S283.473938,187.5669403,284.5247192,187.5669403z M283.2112427,194.4561005h2.6269531v13.8359375h-2.6269531V194.4561005z"/>
		<path class="st3" d="M301.3670044,198.1338348c-0.9633789-1.0214844-1.9848633-1.546875-3.4443359-1.546875
			c-2.8608398,0-4.3203125,2.3056641-4.3203125,4.9038086c0,2.5976563,1.7514648,4.699707,4.4663086,4.699707
			c1.4594727,0,2.480957-0.5253906,3.3569336-1.5473633l1.8681641,1.8681641
			c-1.3720703,1.5180664-3.2402344,2.1308594-5.2543945,2.1308594c-4.2617188,0-7.2392578-2.9482422-7.2392578-7.2099609
			s2.9189453-7.2973633,7.2392578-7.2973633c2.0141602,0,3.9404297,0.7006836,5.3125,2.1894531L301.3670044,198.1338348z"/>
		<path class="st3" d="M314.3557739,197.9297333c-0.612793-0.7592773-1.5180664-1.3720703-2.831543-1.3720703
			c-1.2260742,0-2.3061523,0.5546875-2.3061523,1.546875c0,1.6640625,2.3647461,1.8974609,3.5322266,2.1601563
			c2.2768555,0.5546875,4.0283203,1.4301758,4.0283203,4.0283203c0,3.1235352-2.8608398,4.3491211-5.6044922,4.3491211
			c-2.2768555,0-3.9697266-0.5834961-5.3417969-2.4516602l1.9848633-1.6347656
			c0.8466797,0.8466797,1.8388672,1.6347656,3.3569336,1.6347656c1.3427734,0,2.8022461-0.5546875,2.8022461-1.7514648
			c0-1.5761719-2.1894531-1.8681641-3.3276367-2.1308594c-2.2475586-0.5546875-4.2324219-1.284668-4.2324219-3.940918
			c0-2.8896484,2.65625-4.2617188,5.2539063-4.2617188c1.8388672,0,3.7363281,0.6420898,4.7290039,2.2768555
			L314.3557739,197.9297333z"/>
		<path class="st3" d="M321.5652466,206.5405731c0-1.0507813,0.8754883-1.9262695,1.9267578-1.9262695
			c1.0507813,0,1.9262695,0.8754883,1.9262695,1.9262695s-0.8754883,1.9267578-1.9262695,1.9267578
			C322.4407349,208.4673309,321.5652466,207.5913544,321.5652466,206.5405731z"/>
		<path class="st3" d="M337.6775513,194.1055145c4.1157227,0,7.355957,3.2402344,7.355957,7.2685547
			s-3.2402344,7.2680664-7.355957,7.2680664s-7.355957-3.2397461-7.355957-7.2680664
			S333.5618286,194.1055145,337.6775513,194.1055145z M337.6775513,206.1904755
			c2.8022461,0,4.5537109-2.0141602,4.5537109-4.8164063s-1.7514648-4.8164063-4.5537109-4.8164063
			s-4.5537109,2.0141602-4.5537109,4.8164063S334.8753052,206.1904755,337.6775513,206.1904755z"/>
		<path class="st3" d="M349.7908325,194.4561005h2.6269531v2.1308594h0.0585938
			c0.6713867-1.4594727,2.4228516-2.4814453,4.1450195-2.4814453c0.4086914,0,0.8173828,0.0585938,1.1674805,0.175293
			l-0.1166992,2.831543c-0.4379883-0.1166992-0.8754883-0.2045898-1.2841797-0.2045898
			c-2.5688477,0-3.9702148,1.4013672-3.9702148,4.4370117v6.9472656h-2.6269531V194.4561005z"/>
		<path class="st3" d="M375.3904419,208.1753387c0,4.1743164-3.0356445,7.1220703-7.5600586,7.1220703
			c-2.6269531,0-4.8164063-0.6708984-6.7719727-2.480957l1.7802734-2.2182617
			c1.3720703,1.4594727,2.9189453,2.2475586,4.9331055,2.2475586c3.9116211,0,4.9916992-2.4521484,4.9916992-4.7871094v-2.043457
			h-0.0874023c-0.9926758,1.6640625-2.8901367,2.4521484-4.7875977,2.4521484c-4.0571289,0-7.0639648-3.0649414-7.034668-7.0932617
			c0-4.0869141,2.7441406-7.2685547,7.034668-7.2685547c1.8681641,0,3.7949219,0.8466797,4.8164063,2.3354492h0.0585938v-1.9848633
			h2.6269531V208.1753387z M363.6560669,201.3740692c0,2.8022461,1.7514648,4.6411133,4.5537109,4.6411133
			s4.5537109-1.8388672,4.5537109-4.6411133s-1.7514648-4.8164063-4.5537109-4.8164063
			S363.6560669,198.5718231,363.6560669,201.3740692z"/>
	</g>
	<g>
		<path class="st0" d="M101.6008835,295.3061829l-12.7636719-5.7773438v-2.0454102l12.7636719-5.8041992v2.3374023
			l-9.6689453,4.4760742l9.6689453,4.4760742V295.3061829z"/>
		<path class="st0" d="M109.9153366,294.0845032c0-0.6645508,0.1943359-1.2197266,0.5839844-1.6669922
			s0.8769531-0.6708984,1.4614258-0.6708984c0.5131836,0,0.9316406,0.159668,1.2548828,0.4780273
			c0.3232422,0.3188477,0.4848633,0.7661133,0.4848633,1.3417969c0,0.6108398-0.1748047,1.1640625-0.5249023,1.6601563
			c-0.3496094,0.4956055-0.8564453,0.7436523-1.5205078,0.7436523c-0.5493164,0-0.9760742-0.1660156-1.2817383-0.4980469
			S109.9153366,294.6777649,109.9153366,294.0845032z"/>
		<path class="st0" d="M116.7820358,289.4624329c0-3.3291016,0.6591797-6.277832,1.9790039-8.8457031
			c1.3188477-2.5678711,3.0854492-3.8515625,5.2993164-3.8515625c0.637207,0,1.2128906,0.1040039,1.7265625,0.3120117
			c0.5131836,0.2080078,0.9448242,0.4716797,1.2949219,0.7905273c0.3496094,0.3183594,0.6484375,0.7236328,0.8964844,1.2148438
			c0.2475662,0.4916992,0.4580154,1.1206055,0.630867,1.8862305c0.1723633,0.7661133,0.2587891,1.6313477,0.2587891,2.5966797
			c0,1.2573242-0.1416016,2.5854492-0.4248047,3.984375c-0.2836914,1.3989258-0.6753006,2.6494141-1.1753006,3.7519531
			c-0.5004883,1.1025391-1.0605469,2.0185547-1.6801758,2.7495117c-0.6201172,0.7304688-1.2597656,1.2504883-1.9194336,1.5605469
			c-0.659668,0.3095703-1.3876953,0.4648438-2.1845703,0.4648438c-1.0449219,0-1.9174805-0.28125-2.6166992-0.84375
			c-0.699707-0.5620117-1.2216797-1.3037109-1.5673828-2.2246094
			C116.9543991,292.0879211,116.7820358,290.9057922,116.7820358,289.4624329z M119.8762741,292.5171204
			c0,0.8144531,0.1352539,1.4365234,0.4052734,1.8662109c0.2700195,0.4291992,0.6660156,0.644043,1.1884766,0.644043
			c0.4072266,0,0.7680664-0.112793,1.0825195-0.3388672c0.3144531-0.2255859,0.6000977-0.6264648,0.8569336-1.2021484
			c0.2568359-0.5751953,0.5708008-1.6289063,0.9428711-3.1606445s0.6992188-3.2758789,0.9829102-5.2329102
			c0.2832031-1.9570313,0.4248047-3.5332031,0.4248047-4.7285156c0-0.8500977-0.1591797-1.4853516-0.4780273-1.9057617
			s-0.7260742-0.6308594-1.2216797-0.6308594c-0.2836914,0-0.5493164,0.0688477-0.796875,0.2060547
			c-0.2480469,0.137207-0.4980469,0.4003906-0.7504883,0.7900391s-0.5205078,1.0449219-0.8037109,1.9658203
			s-0.5820313,2.2045898-0.8964844,3.8515625s-0.5493164,3.1010742-0.7041016,4.362793
			S119.8762741,291.4370422,119.8762741,292.5171204z"/>
		<path class="st0" d="M129.4524536,294.6020813c0.3540039-1.4428711,0.5883789-2.7270508,0.7036133-3.8515625l0.1196289-0.105957
			l0.5844727,0.0795898l0.0927734,0.1196289c-0.0351563,0.2036133-0.0532227,0.4291992-0.0532227,0.6772461
			c0,1.0180664,0.2768555,1.8374023,0.8305664,2.4570313c0.5532227,0.6196289,1.3081055,0.9296875,2.2641602,0.9296875
			c1.2128906,0,2.1738281-0.6020508,2.8823242-1.8061523c0.7080078-1.2041016,1.0625-2.5678711,1.0625-4.0908203
			c0-1.0893555-0.2480469-1.9345703-0.7436523-2.5366211c-0.4960938-0.6020508-1.230957-0.9033203-2.2050781-0.9033203
			c-0.6196289,0-1.1577148,0.1308594-1.6137695,0.3916016c-0.4560547,0.2612305-0.8789063,0.6796875-1.2680664,1.2553711
			l-0.8369141-0.3588867c0.956543-4.7988281,1.5273438-8.0170898,1.7133789-9.6557617l0.1459961-0.105957
			c1.0976563,0.1240234,2.5810547,0.1860352,4.4492188,0.1860352c1.9038086,0,3.355957-0.0400391,4.3564453-0.1196289
			l0.159668,0.265625l-1.222168,2.4570313c-1.4257813,0.1240234-2.5366211,0.1860352-3.3334961,0.1860352
			c-1.9833984,0-3.2363281-0.0307617-3.7587891-0.0932617l-1.1420898,5.4189453
			c1.0092773-0.9116211,2.2753906-1.3676758,3.7983398-1.3676758c0.9472656,0,1.8085938,0.1816406,2.5834961,0.5444336
			c0.7744141,0.3632813,1.3720703,0.9321289,1.7929688,1.706543c0.4204102,0.7749023,0.6308594,1.5737305,0.6308594,2.3974609
			c0,1.0449219-0.2568359,2.1206055-0.7705078,3.2275391s-1.3481445,2.0605469-2.503418,2.8618164
			c-1.1557617,0.8012695-2.5478516,1.2021484-4.1772461,1.2021484c-1.6821289,0-3.1831055-0.4116211-4.5024414-1.2353516
			L129.4524536,294.6020813z"/>
	</g>
	<g>
		<g>
			<path class="st0" d="M243.4260864,272.6499329l0.0126953-0.1777344c0.6606445-0.559082,1.3510742-1.109375,2.0708008-1.6513672
				s1.2788086-0.9233398,1.6772461-1.1435547c0.3979492-0.2202148,0.7495117-0.3300781,1.0541992-0.3300781
				c0.5336914,0,0.800293,0.2836914,0.800293,0.8510742c0,0.3046875-0.078125,0.8383789-0.2348633,1.6005859
				s-0.4047852,1.8041992-0.7431641,3.1254883c0.7026367-1.1010742,1.3359375-1.9755859,1.8994141-2.6235352
				c0.5629883-0.6479492,1.3251953-1.2915039,2.2866211-1.9311523c0.9614258-0.6391602,1.8188477-0.9589844,2.5727539-0.9589844
				c0.3129883,0,0.578125,0.1035156,0.7939453,0.3110352s0.3916016,0.5888672,0.5273438,1.1435547
				c0.1352539,0.5546875,0.203125,1.1113281,0.203125,1.6704102c0,1.0419922-0.2075195,2.2021484-0.6225586,3.480957
				c-0.4150391,1.2792969-0.8383789,2.215332-1.2705078,2.8081055c-0.3725586,0.5249023-0.9995117,1.090332-1.8798828,1.6958008
				c-0.8813477,0.6054688-1.6157227,1.0483398-2.2045898,1.3276367s-1.28125,0.4194336-2.0771484,0.4194336
				c-0.5507813,0-1.0415039-0.0551758-1.4736328-0.1655273c-0.1948242,0.8134766-0.4257813,1.8251953-0.6923828,3.0366211
				c-0.2666016,1.2109375-0.4213867,1.9521484-0.4638672,2.2231445s-0.0761719,0.6650391-0.1015625,1.1816406
				c-0.203125,0.0083008-0.7070313,0.0869141-1.5117188,0.2348633c-0.8046875,0.1484375-1.2661133,0.2519531-1.3847656,0.3115234
				l-0.2670898-0.2036133l1.15625-4.3701172c0.3979492-1.6176758,0.887207-3.7924805,1.4672852-6.5239258
				s0.9169922-4.4228516,1.0102539-5.0751953c0.0253906-0.1777344,0.0380859-0.3305664,0.0380859-0.4575195
				c0-0.1606445-0.0380859-0.2939453-0.1142578-0.3999023s-0.1650391-0.1591797-0.2670898-0.1591797
				c-0.1015625,0-0.2583008,0.0698242-0.4697266,0.2099609c-0.2119141,0.1396484-0.6606445,0.472168-1.3466797,0.9970703
				l-0.1782227-0.0126953L243.4260864,272.6499329z M247.1228638,280.2983704
				c0.8217773,0.4570313,1.6391602,0.6860352,2.4521484,0.6860352c0.3896484,0,0.7387695-0.0869141,1.0483398-0.2607422
				c0.309082-0.1733398,0.6137695-0.5014648,0.9145508-0.984375s0.5844727-1.1347656,0.8510742-1.956543
				c0.2670898-0.8212891,0.4912109-1.6176758,0.6733398-2.3886719c0.1821289-0.7705078,0.2734375-1.5625,0.2734375-2.3754883
				c0-0.5419922-0.0488281-0.925293-0.1464844-1.1499023c-0.097168-0.2241211-0.2646484-0.3364258-0.5014648-0.3364258
				c-0.2373047,0-0.5825195,0.1186523-1.0356445,0.3554688c-0.453125,0.2373047-0.9526367,0.6630859-1.4990234,1.2768555
				c-0.5463867,0.6142578-1.03125,1.3173828-1.4545898,2.1088867c-0.4238281,0.7919922-0.7094727,1.4506836-0.8574219,1.9755859
				C247.692688,277.7744446,247.4534302,278.7905579,247.1228638,280.2983704z"/>
			<path class="st0" d="M263.5623169,285.164093c-0.8300781-0.9570313-1.6069336-2.0605469-2.3310547-3.3095703
				s-1.2324219-2.3779297-1.5244141-3.3857422c-0.2924805-1.0078125-0.4384766-2.1259766-0.4384766-3.3540039
				c0-1.1010742,0.1269531-2.1196289,0.3813477-3.0551758c0.2539063-0.9360352,0.6645508-1.9248047,1.2319336-2.9667969
				c0.5673828-1.0415039,1.3276367-2.0727539,2.2807617-3.0932617c0.9526367-1.0205078,2.0898438-2.0605469,3.4111328-3.1191406
				h0.1650391l0.4829102,0.4956055l-0.0126953,0.1650391c-1.6435547,1.6513672-2.9052734,3.6523438-3.7861328,6.0029297
				c-0.8808594,2.3500977-1.3212891,4.8168945-1.3212891,7.4003906c0,1.6176758,0.1865234,3.0639648,0.559082,4.3383789
				c0.3725586,1.2749023,0.90625,2.3823242,1.6005859,3.3222656l-0.0380859,0.1523438l-0.5078125,0.4067383H263.5623169z"/>
			<path class="st0" d="M274.6917114,264.811554l-0.1015625-0.1142578l0.0761719-0.5463867l0.1269531-0.1142578
				c1.8295898-0.2290039,3.5532227-0.6269531,5.1708984-1.1943359l0.3173828,0.2792969l-0.9145508,3.9638672
				c-0.2456055,1.1435547-0.7285156,3.4980469-1.4482422,7.0639648c-0.5253906,2.6166992-0.8300781,4.2514648-0.9150391,4.9038086
				c-0.0424805,0.3300781-0.0634766,0.5717773-0.0634766,0.7241211c0,0.2880859,0.0893555,0.4321289,0.2670898,0.4321289
				c0.2114258,0,0.8085938-0.3598633,1.7910156-1.0800781l0.152832,0.0126953l0.2666016,0.4956055l-0.0380859,0.1650391
				c-1.5751953,1.1943359-2.6064453,1.9165039-3.09375,2.1660156c-0.4868164,0.25-0.8955078,0.375-1.2255859,0.375
				c-0.296875,0-0.5273438-0.1230469-0.6923828-0.3686523c-0.1655273-0.2456055-0.2480469-0.5292969-0.2480469-0.8510742
				c0-0.4741211,0.1611328-1.3422852,0.4829102-2.6044922c0.1606445-0.6518555,0.3725586-1.5498047,0.6352539-2.6933594
				c-0.9658203,1.8466797-2.1176758,3.4008789-3.4555664,4.6625977c-1.3383789,1.262207-2.4267578,1.8930664-3.2651367,1.8930664
				c-0.5,0-0.8935547-0.2290039-1.1816406-0.6860352c-0.2880859-0.4575195-0.4316406-1.0800781-0.4316406-1.8676758
				c0-1.050293,0.1352539-2.1469727,0.40625-3.2905273s0.5908203-2.0917969,0.9594727-2.8457031
				c0.3681641-0.7539063,0.6860352-1.253418,0.9526367-1.4990234s0.8466797-0.6606445,1.7407227-1.2451172
				c0.8930664-0.5844727,1.5644531-0.9594727,2.0136719-1.1245117c0.4487305-0.1650391,0.9272461-0.2475586,1.4355469-0.2475586
				c0.4741211,0,1.0541992,0.0888672,1.7402344,0.2666016l0.4067383-2.6806641
				c0.1186523-0.7875977,0.1777344-1.3422852,0.1777344-1.6640625c0-0.2290039-0.0571289-0.394043-0.1713867-0.4956055
				s-0.3032227-0.1567383-0.5654297-0.1650391C275.7376099,264.8286438,275.3015747,264.8198547,274.6917114,264.811554z
				 M275.8352661,271.367218c-0.6186523-0.2963867-1.3466797-0.4448242-2.1850586-0.4448242
				c-0.6523438,0-1.1333008,0.1123047-1.4423828,0.3364258c-0.309082,0.2246094-0.65625,0.8515625-1.0415039,1.8803711
				c-0.3857422,1.0292969-0.6967773,2.1113281-0.934082,3.2460938c-0.2368164,1.1352539-0.3554688,2.1176758-0.3554688,2.9472656
				c0,0.6015625,0.1567383,0.9023438,0.4702148,0.9023438c0.2875977,0,0.6518555-0.1694336,1.0922852-0.5083008
				s0.9887695-0.9423828,1.6455078-1.8105469c0.65625-0.8681641,1.2001953-1.7871094,1.6323242-2.7568359
				s0.7285156-1.8569336,0.8891602-2.6616211L275.8352661,271.367218z"/>
			<path class="st0" d="M285.8591919,281.8354797V262.816925h1.9946289v19.0185547H285.8591919z"/>
			<path class="st0" d="M307.7615356,271.7607727c0.6269531-3.5825195,0.9404297-5.6533203,0.9404297-6.2124023
				c0-0.1606445-0.0341797-0.2880859-0.1015625-0.3813477c-0.0678711-0.0927734-0.171875-0.1606445-0.3115234-0.203125
				s-0.3959961-0.0761719-0.7685547-0.1015625l-1.1435547-0.0634766l-0.0888672-0.1015625l0.1015625-0.6987305l0.1142578-0.1020508
				c0.9824219,0.0595703,2.1728516,0.0893555,3.5703125,0.0893555c1.0922852,0,2.612793-0.0297852,4.5605469-0.0893555
				l0.0766602,0.1020508l-0.1147461,0.6987305l-0.1142578,0.1015625c-0.9570313,0.0336914-1.5009766,0.0678711-1.6323242,0.1015625
				s-0.2416992,0.0913086-0.3305664,0.1713867c-0.0888672,0.0805664-0.1669922,0.1967773-0.2348633,0.3496094
				c-0.1015625,0.2539063-0.2792969,1.0375977-0.5336914,2.3500977l-1.6386719,9.515625
				c-0.2626953,1.5927734-0.394043,2.5791016-0.394043,2.9604492c0,0.2626953,0.0869141,0.4506836,0.2607422,0.5649414
				c0.1733398,0.1147461,0.4506836,0.1801758,0.8320313,0.1972656l1.2958984,0.0634766l0.0888672,0.1015625l-0.0761719,0.6352539
				l-0.1142578,0.1142578c-0.9829102-0.059082-2.2827148-0.0888672-3.9003906-0.0888672
				c-1.5415039,0-2.9643555,0.0297852-4.2685547,0.0888672l-0.0893555-0.1015625l0.0761719-0.6352539l0.1147461-0.1142578
				c0.0761719-0.0083008,0.2709961-0.0209961,0.5844727-0.0380859c0.7026367-0.0253906,1.128418-0.0844727,1.2763672-0.1777344
				c0.1484375-0.0932617,0.2753906-0.2797852,0.3813477-0.559082c0.105957-0.2797852,0.2900391-1.1518555,0.5527344-2.6171875
				l0.8256836-4.6879883l-3.5698242-0.0126953l-3.9130859,0.0126953c-0.7539063,4.2519531-1.1308594,6.6699219-1.1308594,7.2543945
				c0,0.2626953,0.0888672,0.4506836,0.2670898,0.5649414c0.1777344,0.1147461,0.4487305,0.1801758,0.8129883,0.1972656
				l1.3085938,0.0634766l0.0888672,0.1015625l-0.0761719,0.6352539l-0.1142578,0.1142578
				c-1.1010742-0.059082-2.4013672-0.0888672-3.9003906-0.0888672c-1.5415039,0-2.9643555,0.0297852-4.2685547,0.0888672
				l-0.0893555-0.1015625l0.0639648-0.6352539l0.1269531-0.1142578c0.0761719-0.0083008,0.2709961-0.0209961,0.5844727-0.0380859
				c0.7114258-0.0253906,1.1367188-0.0844727,1.2763672-0.1777344c0.1401367-0.0932617,0.2646484-0.2773438,0.375-0.5527344
				c0.1098633-0.2753906,0.3388672-1.3955078,0.6860352-3.3603516l1.1689453-6.7460938
				c0.4399414-2.5410156,0.6606445-4.0864258,0.6606445-4.637207c0-0.1694336-0.0317383-0.3007813-0.0952148-0.394043
				c-0.0634766-0.0927734-0.1655273-0.1606445-0.3051758-0.203125s-0.3959961-0.0761719-0.7685547-0.1015625l-1.1435547-0.0634766
				l-0.0888672-0.1015625l0.1015625-0.6987305l0.1147461-0.1020508c1.0161133,0.0595703,2.2060547,0.0893555,3.5698242,0.0893555
				c0.8891602,0,2.4091797-0.0297852,4.5610352-0.0893555l0.0761719,0.1020508l-0.1147461,0.6987305l-0.1142578,0.1015625
				c-0.9316406,0.0336914-1.465332,0.0654297-1.6005859,0.0952148c-0.1357422,0.0297852-0.2583008,0.0932617-0.3686523,0.1904297
				c-0.1098633,0.0976563-0.2158203,0.296875-0.3173828,0.597168c-0.1015625,0.3007813-0.2666016,1.1118164-0.4956055,2.4331055
				l-0.6479492,3.6459961c1.6772461,0.0595703,2.9350586,0.0888672,3.7734375,0.0888672L307.7615356,271.7607727z"/>
			<path class="st0" d="M314.2503052,290.573761l-0.0444336-0.0595703l0.1035156-0.4145508l0.081543-0.0668945
				c0.7949219-0.0195313,1.2958984-0.0615234,1.503418-0.1259766c0.0595703-0.0195313,0.1196289-0.0625,0.1816406-0.1293945
				c0.0615234-0.0664063,0.1147461-0.1762695,0.1591797-0.3295898c0.0888672-0.3208008,0.2592773-1.2021484,0.5112305-2.644043
				l0.5922852-3.4296875c0.1777344-1.0219727,0.2739258-1.6166992,0.2890625-1.784668
				c-0.0839844,0.0541992-0.4174805,0.2124023-1,0.4741211l-1.7480469,0.7924805l-0.1333008-0.1113281l0.2519531-1.0146484
				c1.2739258-0.3305664,2.2895508-0.652832,3.0478516-0.9667969c0.7578125-0.3134766,1.237793-0.5444336,1.4404297-0.6923828
				l0.2739258,0.2075195c-0.0688477,0.2519531-0.2988281,1.5107422-0.6884766,3.7773438l-0.7480469,4.2290039
				c-0.1040039,0.5581055-0.1557617,0.953125-0.1557617,1.1855469c0,0.1826172,0.0517578,0.3120117,0.1557617,0.3886719
				c0.1035156,0.0766602,0.3686523,0.1259766,0.7958984,0.1479492c0.4272461,0.0224609,0.7666016,0.0336914,1.0185547,0.0336914
				l0.0517578,0.0664063l-0.0961914,0.3999023l-0.0742188,0.0668945l-0.2514648-0.0151367
				c-0.0644531-0.0048828-0.4892578-0.0161133-1.2739258-0.0332031c-0.7851563-0.0170898-1.2299805-0.0258789-1.3334961-0.0258789
				C316.2327271,290.4995422,315.2625122,290.5239563,314.2503052,290.573761z"/>
			<path class="st0" d="M323.9724731,262.8804016c0.7368164,0.8129883,1.4799805,1.8549805,2.2294922,3.1254883
				c0.75,1.2700195,1.28125,2.4199219,1.5947266,3.4492188c0.3129883,1.0288086,0.4697266,2.1870117,0.4697266,3.4746094
				c0,1.1010742-0.125,2.1171875-0.3745117,3.0488281c-0.25,0.9321289-0.6606445,1.9208984-1.2324219,2.9667969
				s-1.3339844,2.0791016-2.2866211,3.0996094c-0.953125,1.0205078-2.0898438,2.0600586-3.4111328,3.1191406h-0.1655273
				l-0.4824219-0.4956055l0.0126953-0.1777344c1.6342773-1.6176758,2.8964844-3.6035156,3.7856445-5.9584961
				c0.8896484-2.3544922,1.3339844-4.8320313,1.3339844-7.4321289c0-3.1508789-0.7241211-5.7041016-2.1723633-7.6606445
				l0.0380859-0.1523438l0.5083008-0.4067383H323.9724731z"/>
		</g>
		<g>
			<path class="st0" d="M243.4260864,307.3457336l0.0126953-0.1777344c0.6606445-0.559082,1.3510742-1.109375,2.0708008-1.6513672
				s1.2788086-0.9233398,1.6772461-1.1435547c0.3979492-0.2202148,0.7495117-0.3300781,1.0541992-0.3300781
				c0.5336914,0,0.800293,0.2836914,0.800293,0.8510742c0,0.3046875-0.078125,0.8383789-0.2348633,1.6005859
				s-0.4047852,1.8041992-0.7431641,3.1254883c0.7026367-1.1010742,1.3359375-1.9755859,1.8994141-2.6235352
				c0.5629883-0.6479492,1.3251953-1.2915039,2.2866211-1.9311523c0.9614258-0.6391602,1.8188477-0.9589844,2.5727539-0.9589844
				c0.3129883,0,0.578125,0.1035156,0.7939453,0.3110352s0.3916016,0.5888672,0.5273438,1.1435547
				c0.1352539,0.5546875,0.203125,1.1113281,0.203125,1.6704102c0,1.0419922-0.2075195,2.2021484-0.6225586,3.480957
				c-0.4150391,1.2792969-0.8383789,2.215332-1.2705078,2.8081055c-0.3725586,0.5249023-0.9995117,1.090332-1.8798828,1.6958008
				c-0.8813477,0.6054688-1.6157227,1.0483398-2.2045898,1.3276367s-1.28125,0.4194336-2.0771484,0.4194336
				c-0.5507813,0-1.0415039-0.0551758-1.4736328-0.1655273c-0.1948242,0.8134766-0.4257813,1.8251953-0.6923828,3.0366211
				c-0.2666016,1.2109375-0.4213867,1.9521484-0.4638672,2.2231445s-0.0761719,0.6650391-0.1015625,1.1816406
				c-0.203125,0.0083008-0.7070313,0.0869141-1.5117188,0.2348633c-0.8046875,0.1484375-1.2661133,0.2519531-1.3847656,0.3115234
				l-0.2670898-0.2036133l1.15625-4.3701172c0.3979492-1.6176758,0.887207-3.7924805,1.4672852-6.5239258
				s0.9169922-4.4228516,1.0102539-5.0751953c0.0253906-0.1777344,0.0380859-0.3305664,0.0380859-0.4575195
				c0-0.1606445-0.0380859-0.2939453-0.1142578-0.3999023s-0.1650391-0.1591797-0.2670898-0.1591797
				c-0.1015625,0-0.2583008,0.0698242-0.4697266,0.2099609c-0.2119141,0.1396484-0.6606445,0.472168-1.3466797,0.9970703
				l-0.1782227-0.0126953L243.4260864,307.3457336z M247.1228638,314.9941711
				c0.8217773,0.4570313,1.6391602,0.6860352,2.4521484,0.6860352c0.3896484,0,0.7387695-0.0869141,1.0483398-0.2607422
				c0.309082-0.1733398,0.6137695-0.5014648,0.9145508-0.984375s0.5844727-1.1347656,0.8510742-1.956543
				c0.2670898-0.8212891,0.4912109-1.6176758,0.6733398-2.3886719c0.1821289-0.7705078,0.2734375-1.5625,0.2734375-2.3754883
				c0-0.5419922-0.0488281-0.925293-0.1464844-1.1499023c-0.097168-0.2241211-0.2646484-0.3364258-0.5014648-0.3364258
				c-0.2373047,0-0.5825195,0.1186523-1.0356445,0.3554688c-0.453125,0.2373047-0.9526367,0.6630859-1.4990234,1.2768555
				c-0.5463867,0.6142578-1.03125,1.3173828-1.4545898,2.1088867c-0.4238281,0.7919922-0.7094727,1.4506836-0.8574219,1.9755859
				C247.692688,312.4702454,247.4534302,313.4863586,247.1228638,314.9941711z"/>
			<path class="st0" d="M263.5623169,319.8598938c-0.8300781-0.9570313-1.6069336-2.0605469-2.3310547-3.3095703
				s-1.2324219-2.3779297-1.5244141-3.3857422c-0.2924805-1.0078125-0.4384766-2.1259766-0.4384766-3.3540039
				c0-1.1010742,0.1269531-2.1196289,0.3813477-3.0551758c0.2539063-0.9360352,0.6645508-1.9248047,1.2319336-2.9667969
				c0.5673828-1.0415039,1.3276367-2.0727539,2.2807617-3.0932617c0.9526367-1.0205078,2.0898438-2.0605469,3.4111328-3.1191406
				h0.1650391l0.4829102,0.4956055l-0.0126953,0.1650391c-1.6435547,1.6513672-2.9052734,3.6523438-3.7861328,6.0029297
				c-0.8808594,2.3500977-1.3212891,4.8168945-1.3212891,7.4003906c0,1.6176758,0.1865234,3.0639648,0.559082,4.3383789
				c0.3725586,1.2749023,0.90625,2.3823242,1.6005859,3.3222656l-0.0380859,0.1523438l-0.5078125,0.4067383H263.5623169z"/>
			<path class="st0" d="M274.6917114,299.5073547l-0.1015625-0.1142578l0.0761719-0.5463867l0.1269531-0.1142578
				c1.8295898-0.2290039,3.5532227-0.6269531,5.1708984-1.1943359l0.3173828,0.2792969l-0.9145508,3.9638672
				c-0.2456055,1.1435547-0.7285156,3.4980469-1.4482422,7.0639648c-0.5253906,2.6166992-0.8300781,4.2514648-0.9150391,4.9038086
				c-0.0424805,0.3300781-0.0634766,0.5717773-0.0634766,0.7241211c0,0.2880859,0.0893555,0.4321289,0.2670898,0.4321289
				c0.2114258,0,0.8085938-0.3598633,1.7910156-1.0800781l0.152832,0.0126953l0.2666016,0.4956055l-0.0380859,0.1650391
				c-1.5751953,1.1943359-2.6064453,1.9165039-3.09375,2.1660156c-0.4868164,0.25-0.8955078,0.375-1.2255859,0.375
				c-0.296875,0-0.5273438-0.1230469-0.6923828-0.3686523c-0.1655273-0.2456055-0.2480469-0.5292969-0.2480469-0.8510742
				c0-0.4741211,0.1611328-1.3422852,0.4829102-2.6044922c0.1606445-0.6518555,0.3725586-1.5498047,0.6352539-2.6933594
				c-0.9658203,1.8466797-2.1176758,3.4008789-3.4555664,4.6625977c-1.3383789,1.262207-2.4267578,1.8930664-3.2651367,1.8930664
				c-0.5,0-0.8935547-0.2290039-1.1816406-0.6860352c-0.2880859-0.4575195-0.4316406-1.0800781-0.4316406-1.8676758
				c0-1.050293,0.1352539-2.1469727,0.40625-3.2905273s0.5908203-2.0917969,0.9594727-2.8457031
				c0.3681641-0.7539063,0.6860352-1.253418,0.9526367-1.4990234s0.8466797-0.6606445,1.7407227-1.2451172
				c0.8930664-0.5844727,1.5644531-0.9594727,2.0136719-1.1245117c0.4487305-0.1650391,0.9272461-0.2475586,1.4355469-0.2475586
				c0.4741211,0,1.0541992,0.0888672,1.7402344,0.2666016l0.4067383-2.6806641
				c0.1186523-0.7875977,0.1777344-1.3422852,0.1777344-1.6640625c0-0.2290039-0.0571289-0.394043-0.1713867-0.4956055
				s-0.3032227-0.1567383-0.5654297-0.1650391C275.7376099,299.5244446,275.3015747,299.5156555,274.6917114,299.5073547z
				 M275.8352661,306.0630188c-0.6186523-0.2963867-1.3466797-0.4448242-2.1850586-0.4448242
				c-0.6523438,0-1.1333008,0.1123047-1.4423828,0.3364258c-0.309082,0.2246094-0.65625,0.8515625-1.0415039,1.8803711
				c-0.3857422,1.0292969-0.6967773,2.1113281-0.934082,3.2460938c-0.2368164,1.1352539-0.3554688,2.1176758-0.3554688,2.9472656
				c0,0.6015625,0.1567383,0.9023438,0.4702148,0.9023438c0.2875977,0,0.6518555-0.1694336,1.0922852-0.5083008
				s0.9887695-0.9423828,1.6455078-1.8105469c0.65625-0.8681641,1.2001953-1.7871094,1.6323242-2.7568359
				s0.7285156-1.8569336,0.8891602-2.6616211L275.8352661,306.0630188z"/>
			<path class="st0" d="M285.8591919,316.5312805v-19.0185547h1.9946289v19.0185547H285.8591919z"/>
			<path class="st0" d="M307.7615356,306.4565735c0.6269531-3.5825195,0.9404297-5.6533203,0.9404297-6.2124023
				c0-0.1606445-0.0341797-0.2880859-0.1015625-0.3813477c-0.0678711-0.0927734-0.171875-0.1606445-0.3115234-0.203125
				s-0.3959961-0.0761719-0.7685547-0.1015625l-1.1435547-0.0634766l-0.0888672-0.1015625l0.1015625-0.6987305l0.1142578-0.1020508
				c0.9824219,0.0595703,2.1728516,0.0893555,3.5703125,0.0893555c1.0922852,0,2.612793-0.0297852,4.5605469-0.0893555
				l0.0766602,0.1020508l-0.1147461,0.6987305l-0.1142578,0.1015625c-0.9570313,0.0336914-1.5009766,0.0678711-1.6323242,0.1015625
				s-0.2416992,0.0913086-0.3305664,0.1713867c-0.0888672,0.0805664-0.1669922,0.1967773-0.2348633,0.3496094
				c-0.1015625,0.2539063-0.2792969,1.0375977-0.5336914,2.3500977l-1.6386719,9.515625
				c-0.2626953,1.5927734-0.394043,2.5791016-0.394043,2.9604492c0,0.2626953,0.0869141,0.4506836,0.2607422,0.5649414
				c0.1733398,0.1147461,0.4506836,0.1801758,0.8320313,0.1972656l1.2958984,0.0634766l0.0888672,0.1015625l-0.0761719,0.6352539
				l-0.1142578,0.1142578c-0.9829102-0.059082-2.2827148-0.0888672-3.9003906-0.0888672
				c-1.5415039,0-2.9643555,0.0297852-4.2685547,0.0888672l-0.0893555-0.1015625l0.0761719-0.6352539l0.1147461-0.1142578
				c0.0761719-0.0083008,0.2709961-0.0209961,0.5844727-0.0380859c0.7026367-0.0253906,1.128418-0.0844727,1.2763672-0.1777344
				c0.1484375-0.0932617,0.2753906-0.2797852,0.3813477-0.559082c0.105957-0.2797852,0.2900391-1.1518555,0.5527344-2.6171875
				l0.8256836-4.6879883l-3.5698242-0.0126953l-3.9130859,0.0126953c-0.7539063,4.2519531-1.1308594,6.6699219-1.1308594,7.2543945
				c0,0.2626953,0.0888672,0.4506836,0.2670898,0.5649414c0.1777344,0.1147461,0.4487305,0.1801758,0.8129883,0.1972656
				l1.3085938,0.0634766l0.0888672,0.1015625l-0.0761719,0.6352539l-0.1142578,0.1142578
				c-1.1010742-0.059082-2.4013672-0.0888672-3.9003906-0.0888672c-1.5415039,0-2.9643555,0.0297852-4.2685547,0.0888672
				l-0.0893555-0.1015625l0.0639648-0.6352539l0.1269531-0.1142578c0.0761719-0.0083008,0.2709961-0.0209961,0.5844727-0.0380859
				c0.7114258-0.0253906,1.1367188-0.0844727,1.2763672-0.1777344c0.1401367-0.0932617,0.2646484-0.2773438,0.375-0.5527344
				c0.1098633-0.2753906,0.3388672-1.3955078,0.6860352-3.3603516l1.1689453-6.7460938
				c0.4399414-2.5410156,0.6606445-4.0864258,0.6606445-4.637207c0-0.1694336-0.0317383-0.3007813-0.0952148-0.394043
				c-0.0634766-0.0927734-0.1655273-0.1606445-0.3051758-0.203125s-0.3959961-0.0761719-0.7685547-0.1015625l-1.1435547-0.0634766
				l-0.0888672-0.1015625l0.1015625-0.6987305l0.1147461-0.1020508c1.0161133,0.0595703,2.2060547,0.0893555,3.5698242,0.0893555
				c0.8891602,0,2.4091797-0.0297852,4.5610352-0.0893555l0.0761719,0.1020508l-0.1147461,0.6987305l-0.1142578,0.1015625
				c-0.9316406,0.0336914-1.465332,0.0654297-1.6005859,0.0952148c-0.1357422,0.0297852-0.2583008,0.0932617-0.3686523,0.1904297
				c-0.1098633,0.0976563-0.2158203,0.296875-0.3173828,0.597168c-0.1015625,0.3007813-0.2666016,1.1118164-0.4956055,2.4331055
				l-0.6479492,3.6459961c1.6772461,0.0595703,2.9350586,0.0888672,3.7734375,0.0888672L307.7615356,306.4565735z"/>
			<path class="st0" d="M314.2576294,321.8252258c0-1.8564453,0.3676758-3.5009766,1.1035156-4.9326172
				c0.7358398-1.4321289,1.7207031-2.1479492,2.9550781-2.1479492c0.355957,0,0.6767578,0.0581055,0.9628906,0.1738281
				c0.2866211,0.1162109,0.5273438,0.2631836,0.722168,0.440918c0.1953125,0.1777344,0.3618164,0.4033203,0.5,0.6777344
				c0.1381836,0.2739258,0.2558594,0.6245117,0.3520508,1.0517578c0.0961914,0.4267578,0.1445313,0.909668,0.1445313,1.4477539
				c0,0.7011719-0.0791016,1.4418945-0.2373047,2.222168s-0.3764648,1.4775391-0.6552734,2.0922852
				c-0.2792969,0.6147461-0.5913086,1.1259766-0.9370117,1.5332031s-0.7026367,0.6972656-1.0703125,0.8701172
				s-0.7739258,0.2592773-1.2182617,0.2592773c-0.5830078,0-1.0693359-0.1567383-1.4594727-0.4702148
				s-0.6811523-0.7270508-0.8740234-1.2407227C314.3538208,323.2895813,314.2576294,322.6304016,314.2576294,321.8252258z
				 M315.9832153,323.5288391c0,0.4545898,0.0751953,0.8012695,0.2260742,1.0405273
				c0.1503906,0.2397461,0.371582,0.359375,0.6630859,0.359375c0.2270508,0,0.4282227-0.0629883,0.6035156-0.1889648
				s0.3344727-0.3491211,0.4775391-0.6704102c0.1430664-0.3208008,0.3183594-0.9082031,0.5258789-1.7626953
				c0.2075195-0.8540039,0.3901367-1.8266602,0.5483398-2.9179688c0.1577148-1.0913086,0.2368164-1.9702148,0.2368164-2.637207
				c0-0.4736328-0.0888672-0.828125-0.2666016-1.0625c-0.1777344-0.2348633-0.4047852-0.3520508-0.6816406-0.3520508
				c-0.1577148,0-0.3061523,0.0385742-0.4443359,0.1147461c-0.1381836,0.0766602-0.277832,0.2236328-0.418457,0.440918
				s-0.2900391,0.5825195-0.4477539,1.0961914c-0.1582031,0.5136719-0.3251953,1.2294922-0.5,2.1479492
				c-0.175293,0.918457-0.3061523,1.7294922-0.3925781,2.4331055S315.9832153,322.9263,315.9832153,323.5288391z"/>
			<path class="st0" d="M323.9724731,297.5762024c0.7368164,0.8129883,1.4799805,1.8549805,2.2294922,3.1254883
				c0.75,1.2700195,1.28125,2.4199219,1.5947266,3.4492188c0.3129883,1.0288086,0.4697266,2.1870117,0.4697266,3.4746094
				c0,1.1010742-0.125,2.1171875-0.3745117,3.0488281c-0.25,0.9321289-0.6606445,1.9208984-1.2324219,2.9667969
				s-1.3339844,2.0791016-2.2866211,3.0996094c-0.953125,1.0205078-2.0898438,2.0600586-3.4111328,3.1191406h-0.1655273
				l-0.4824219-0.4956055l0.0126953-0.1777344c1.6342773-1.6176758,2.8964844-3.6035156,3.7856445-5.9584961
				c0.8896484-2.3544922,1.3339844-4.8320313,1.3339844-7.4321289c0-3.1508789-0.7241211-5.7041016-2.1723633-7.6606445
				l0.0380859-0.1523438l0.5083008-0.4067383H323.9724731z"/>
		</g>
		<line class="st4" x1="238.123703" y1="293.8087769" x2="329.3151855" y2="293.8087769"/>
	</g>
	<g>
		<path class="st2" d="M224.1028595,149.2903748c31.8306885,0,27.9890442-73.8935089,44.4532013-73.8935089
			c7.3015747,0,11.377655,12.7733231,16.8825073,27.6985397"/>
		<g>
			<rect x="255.5905457" y="145.7306213" class="st0" width="1.8522166" height="5.0287566"/>
			<rect x="253.738327" y="147.6159821" class="st0" width="1.8522166" height="3.1434"/>
			<rect x="251.8861084" y="148.2449951" class="st0" width="1.8522166" height="2.5143783"/>
			<rect x="257.442749" y="144.2730103" class="st0" width="1.8522166" height="6.4863672"/>
			<rect x="259.2949829" y="140.9933929" class="st0" width="1.8522166" height="9.7659912"/>
			<rect x="261.1471863" y="138.5883331" class="st0" width="1.8522166" height="12.1710482"/>
			<rect x="262.9993896" y="137.7137604" class="st0" width="1.8522166" height="13.0456152"/>
			<rect x="264.8516235" y="135.2358246" class="st0" width="1.8522166" height="15.5235529"/>
			<rect x="266.7038269" y="132.2477264" class="st0" width="1.8522166" height="18.5116539"/>
			<rect x="268.5560608" y="128.7494507" class="st0" width="1.8522166" height="22.0099201"/>
			<rect x="270.4082642" y="125.8342361" class="st0" width="1.8522166" height="24.9251404"/>
			<rect x="272.260498" y="125.1783142" class="st0" width="1.8522166" height="25.5810661"/>
			<rect x="274.1127014" y="122.7732544" class="st0" width="1.8522166" height="27.986124"/>
			<rect x="275.9649353" y="120.0766754" class="st0" width="1.8522166" height="30.682703"/>
			<rect x="277.8171387" y="117.598732" class="st0" width="1.8522166" height="33.1606407"/>
			<rect x="279.669342" y="112.8615036" class="st0" width="1.8522166" height="37.8978767"/>
			<rect x="281.5215759" y="108.4886703" class="st0" width="1.8522166" height="42.2707062"/>
			<rect x="283.3737793" y="104.6798782" class="st0" width="1.8522166" height="46.0794983"/>
			<rect x="285.2260132" y="103.0955124" class="st0" width="1.8522166" height="47.663868"/>
			<rect x="287.0782166" y="100.6318054" class="st0" width="1.8522166" height="50.1275711"/>
			<rect x="288.9304504" y="99.3057251" class="st0" width="1.8522166" height="51.4536552"/>
			<rect x="290.7826538" y="97.848114" class="st0" width="1.8522166" height="52.9112625"/>
			<rect x="292.6348572" y="99.3057251" class="st0" width="1.8522166" height="51.4536552"/>
			<rect x="294.4870911" y="100.2531662" class="st0" width="1.8522166" height="50.5062065"/>
			<rect x="296.3392944" y="99.8887634" class="st0" width="1.8522166" height="50.8706093"/>
			<rect x="298.1915283" y="101.9294205" class="st0" width="1.8522166" height="48.8299561"/>
			<rect x="300.0437317" y="104.6798782" class="st0" width="1.8522166" height="46.0794983"/>
			<rect x="301.8959656" y="105.7192078" class="st0" width="1.8522166" height="45.0401688"/>
			<rect x="303.7481689" y="109.5818787" class="st0" width="1.8522166" height="41.1774979"/>
			<rect x="305.6003723" y="113.3442917" class="st0" width="1.8522166" height="37.4150887"/>
			<rect x="307.4526062" y="116.5055313" class="st0" width="1.8522166" height="34.253849"/>
			<rect x="309.3048096" y="121.1698837" class="st0" width="1.8522166" height="29.5894947"/>
			<rect x="311.1570435" y="124.3037415" class="st0" width="1.8522166" height="26.4556313"/>
			<rect x="313.0092468" y="128.5308075" class="st0" width="1.8522166" height="22.2285614"/>
			<rect x="314.8614807" y="131.5513763" class="st0" width="1.8522166" height="19.2080059"/>
			<rect x="316.7136841" y="133.0679169" class="st0" width="1.8522166" height="17.6914635"/>
			<rect x="318.5658875" y="135.4180298" class="st0" width="1.8522166" height="15.3413515"/>
			<rect x="320.4181213" y="137.0490112" class="st0" width="1.8522166" height="13.7103653"/>
			<rect x="322.2703247" y="140.2124023" class="st0" width="1.8522166" height="10.5469675"/>
			<rect x="324.1225586" y="141.7098846" class="st0" width="1.8522166" height="9.0494947"/>
			<rect x="325.974762" y="142.4509888" class="st0" width="1.8522166" height="8.3083801"/>
			<rect x="327.8269958" y="143.9041901" class="st0" width="1.8522166" height="6.8551826"/>
			<rect x="329.6791992" y="144.5389099" class="st0" width="1.8522166" height="6.2204671"/>
			<rect x="331.5314026" y="143.9041901" class="st0" width="1.8522166" height="6.8551826"/>
			<rect x="333.3836365" y="146.2346344" class="st0" width="1.8522166" height="4.5247474"/>
			<rect x="335.2358398" y="147.3036804" class="st0" width="1.8522166" height="3.455698"/>
			<rect x="337.0880737" y="146.8837738" class="st0" width="1.8522166" height="3.8755975"/>
			<rect x="338.9402771" y="147.1897736" class="st0" width="1.8522166" height="3.5696051"/>
			<rect x="340.792511" y="147.6639557" class="st0" width="1.8522166" height="3.0954232"/>
			<rect x="342.6447144" y="147.993042" class="st0" width="1.8522166" height="2.7663391"/>
			<rect x="344.4969482" y="148.6313171" class="st0" width="1.8522166" height="2.1280608"/>
			<rect x="346.3491516" y="148.9334564" class="st0" width="1.8522166" height="1.8259158"/>
		</g>
		<g>
			<g>
				<path class="st2" d="M307.4512939,116.0043793c0.6824951-0.4433517,1.3820801-0.853714,2.1005859-1.2269516"/>
				<path class="st5" d="M314.1453247,113.0056915c1.664917-0.429039,3.4265747-0.6620712,5.3007202-0.6620712
					c18.1496887,0,25.7825317,22.2378006,39.9149475,32.3302383c2.6931763,1.9232941,4.8113098,3.2650146,7.2995605,3.9885559"/>
				<path class="st2" d="M369.0718079,149.1514282c0.7563477,0.092392,1.5606384,0.1389465,2.4315186,0.1389465"/>
			</g>
		</g>
		<path class="st6" d="M285.4385681,103.0954056c7.7353821,20.9729309,18.2919312,46.1949692,44.5836487,46.1949692"/>
		<g>
			<g>
				<path class="st6" d="M270.6678467,149.2903748c0.8312073,0,1.6374207-0.0677032,2.421051-0.1973267"/>
				<path class="st7" d="M277.9079285,147.4281006c9.6372681-5.1354065,15.9923096-19.6902771,25.589386-28.3554535"/>
				<path class="st6" d="M305.4686584,117.4174118c0.6451721-0.5007935,1.305481-0.9731522,1.9826355-1.4130325"/>
			</g>
		</g>
	</g>
</g>
</svg>
